<svg version="1.1" xmlns="http://www.w3.org/2000/svg" width="136px" height="136px" viewBox="0 0 136 136"  preserveAspectRatio="xMinYMin meet"><rect width="100%" height="100%" fill="white" cx="0" cy="0"/><path d="M2,2l4,0 0,4 -4,0 0,-4z M6,2l4,0 0,4 -4,0 0,-4z M10,2l4,0 0,4 -4,0 0,-4z M14,2l4,0 0,4 -4,0 0,-4z M18,2l4,0 0,4 -4,0 0,-4z M22,2l4,0 0,4 -4,0 0,-4z M26,2l4,0 0,4 -4,0 0,-4z M34,2l4,0 0,4 -4,0 0,-4z M42,2l4,0 0,4 -4,0 0,-4z M50,2l4,0 0,4 -4,0 0,-4z M58,2l4,0 0,4 -4,0 0,-4z M62,2l4,0 0,4 -4,0 0,-4z M66,2l4,0 0,4 -4,0 0,-4z M70,2l4,0 0,4 -4,0 0,-4z M74,2l4,0 0,4 -4,0 0,-4z M78,2l4,0 0,4 -4,0 0,-4z M82,2l4,0 0,4 -4,0 0,-4z M86,2l4,0 0,4 -4,0 0,-4z M94,2l4,0 0,4 -4,0 0,-4z M106,2l4,0 0,4 -4,0 0,-4z M110,2l4,0 0,4 -4,0 0,-4z M114,2l4,0 0,4 -4,0 0,-4z M118,2l4,0 0,4 -4,0 0,-4z M122,2l4,0 0,4 -4,0 0,-4z M126,2l4,0 0,4 -4,0 0,-4z M130,2l4,0 0,4 -4,0 0,-4z M2,6l4,0 0,4 -4,0 0,-4z M26,6l4,0 0,4 -4,0 0,-4z M38,6l4,0 0,4 -4,0 0,-4z M42,6l4,0 0,4 -4,0 0,-4z M46,6l4,0 0,4 -4,0 0,-4z M50,6l4,0 0,4 -4,0 0,-4z M54,6l4,0 0,4 -4,0 0,-4z M66,6l4,0 0,4 -4,0 0,-4z M70,6l4,0 0,4 -4,0 0,-4z M90,6l4,0 0,4 -4,0 0,-4z M94,6l4,0 0,4 -4,0 0,-4z M106,6l4,0 0,4 -4,0 0,-4z M130,6l4,0 0,4 -4,0 0,-4z M2,10l4,0 0,4 -4,0 0,-4z M10,10l4,0 0,4 -4,0 0,-4z M14,10l4,0 0,4 -4,0 0,-4z M18,10l4,0 0,4 -4,0 0,-4z M26,10l4,0 0,4 -4,0 0,-4z M34,10l4,0 0,4 -4,0 0,-4z M38,10l4,0 0,4 -4,0 0,-4z M42,10l4,0 0,4 -4,0 0,-4z M54,10l4,0 0,4 -4,0 0,-4z M58,10l4,0 0,4 -4,0 0,-4z M62,10l4,0 0,4 -4,0 0,-4z M74,10l4,0 0,4 -4,0 0,-4z M94,10l4,0 0,4 -4,0 0,-4z M106,10l4,0 0,4 -4,0 0,-4z M114,10l4,0 0,4 -4,0 0,-4z M118,10l4,0 0,4 -4,0 0,-4z M122,10l4,0 0,4 -4,0 0,-4z M130,10l4,0 0,4 -4,0 0,-4z M2,14l4,0 0,4 -4,0 0,-4z M10,14l4,0 0,4 -4,0 0,-4z M14,14l4,0 0,4 -4,0 0,-4z M18,14l4,0 0,4 -4,0 0,-4z M26,14l4,0 0,4 -4,0 0,-4z M34,14l4,0 0,4 -4,0 0,-4z M38,14l4,0 0,4 -4,0 0,-4z M42,14l4,0 0,4 -4,0 0,-4z M50,14l4,0 0,4 -4,0 0,-4z M54,14l4,0 0,4 -4,0 0,-4z M58,14l4,0 0,4 -4,0 0,-4z M62,14l4,0 0,4 -4,0 0,-4z M70,14l4,0 0,4 -4,0 0,-4z M74,14l4,0 0,4 -4,0 0,-4z M82,14l4,0 0,4 -4,0 0,-4z M90,14l4,0 0,4 -4,0 0,-4z M98,14l4,0 0,4 -4,0 0,-4z M106,14l4,0 0,4 -4,0 0,-4z M114,14l4,0 0,4 -4,0 0,-4z M118,14l4,0 0,4 -4,0 0,-4z M122,14l4,0 0,4 -4,0 0,-4z M130,14l4,0 0,4 -4,0 0,-4z M2,18l4,0 0,4 -4,0 0,-4z M10,18l4,0 0,4 -4,0 0,-4z M14,18l4,0 0,4 -4,0 0,-4z M18,18l4,0 0,4 -4,0 0,-4z M26,18l4,0 0,4 -4,0 0,-4z M34,18l4,0 0,4 -4,0 0,-4z M46,18l4,0 0,4 -4,0 0,-4z M50,18l4,0 0,4 -4,0 0,-4z M62,18l4,0 0,4 -4,0 0,-4z M66,18l4,0 0,4 -4,0 0,-4z M74,18l4,0 0,4 -4,0 0,-4z M78,18l4,0 0,4 -4,0 0,-4z M98,18l4,0 0,4 -4,0 0,-4z M106,18l4,0 0,4 -4,0 0,-4z M114,18l4,0 0,4 -4,0 0,-4z M118,18l4,0 0,4 -4,0 0,-4z M122,18l4,0 0,4 -4,0 0,-4z M130,18l4,0 0,4 -4,0 0,-4z M2,22l4,0 0,4 -4,0 0,-4z M26,22l4,0 0,4 -4,0 0,-4z M42,22l4,0 0,4 -4,0 0,-4z M46,22l4,0 0,4 -4,0 0,-4z M74,22l4,0 0,4 -4,0 0,-4z M78,22l4,0 0,4 -4,0 0,-4z M82,22l4,0 0,4 -4,0 0,-4z M98,22l4,0 0,4 -4,0 0,-4z M106,22l4,0 0,4 -4,0 0,-4z M130,22l4,0 0,4 -4,0 0,-4z M2,26l4,0 0,4 -4,0 0,-4z M6,26l4,0 0,4 -4,0 0,-4z M10,26l4,0 0,4 -4,0 0,-4z M14,26l4,0 0,4 -4,0 0,-4z M18,26l4,0 0,4 -4,0 0,-4z M22,26l4,0 0,4 -4,0 0,-4z M26,26l4,0 0,4 -4,0 0,-4z M34,26l4,0 0,4 -4,0 0,-4z M42,26l4,0 0,4 -4,0 0,-4z M50,26l4,0 0,4 -4,0 0,-4z M58,26l4,0 0,4 -4,0 0,-4z M66,26l4,0 0,4 -4,0 0,-4z M74,26l4,0 0,4 -4,0 0,-4z M82,26l4,0 0,4 -4,0 0,-4z M90,26l4,0 0,4 -4,0 0,-4z M98,26l4,0 0,4 -4,0 0,-4z M106,26l4,0 0,4 -4,0 0,-4z M110,26l4,0 0,4 -4,0 0,-4z M114,26l4,0 0,4 -4,0 0,-4z M118,26l4,0 0,4 -4,0 0,-4z M122,26l4,0 0,4 -4,0 0,-4z M126,26l4,0 0,4 -4,0 0,-4z M130,26l4,0 0,4 -4,0 0,-4z M42,30l4,0 0,4 -4,0 0,-4z M50,30l4,0 0,4 -4,0 0,-4z M66,30l4,0 0,4 -4,0 0,-4z M70,30l4,0 0,4 -4,0 0,-4z M74,30l4,0 0,4 -4,0 0,-4z M78,30l4,0 0,4 -4,0 0,-4z M94,30l4,0 0,4 -4,0 0,-4z M98,30l4,0 0,4 -4,0 0,-4z M2,34l4,0 0,4 -4,0 0,-4z M6,34l4,0 0,4 -4,0 0,-4z M10,34l4,0 0,4 -4,0 0,-4z M14,34l4,0 0,4 -4,0 0,-4z M26,34l4,0 0,4 -4,0 0,-4z M34,34l4,0 0,4 -4,0 0,-4z M42,34l4,0 0,4 -4,0 0,-4z M46,34l4,0 0,4 -4,0 0,-4z M50,34l4,0 0,4 -4,0 0,-4z M54,34l4,0 0,4 -4,0 0,-4z M62,34l4,0 0,4 -4,0 0,-4z M66,34l4,0 0,4 -4,0 0,-4z M70,34l4,0 0,4 -4,0 0,-4z M74,34l4,0 0,4 -4,0 0,-4z M82,34l4,0 0,4 -4,0 0,-4z M86,34l4,0 0,4 -4,0 0,-4z M90,34l4,0 0,4 -4,0 0,-4z M94,34l4,0 0,4 -4,0 0,-4z M102,34l4,0 0,4 -4,0 0,-4z M114,34l4,0 0,4 -4,0 0,-4z M118,34l4,0 0,4 -4,0 0,-4z M122,34l4,0 0,4 -4,0 0,-4z M130,34l4,0 0,4 -4,0 0,-4z M10,38l4,0 0,4 -4,0 0,-4z M14,38l4,0 0,4 -4,0 0,-4z M22,38l4,0 0,4 -4,0 0,-4z M30,38l4,0 0,4 -4,0 0,-4z M34,38l4,0 0,4 -4,0 0,-4z M42,38l4,0 0,4 -4,0 0,-4z M50,38l4,0 0,4 -4,0 0,-4z M54,38l4,0 0,4 -4,0 0,-4z M70,38l4,0 0,4 -4,0 0,-4z M74,38l4,0 0,4 -4,0 0,-4z M78,38l4,0 0,4 -4,0 0,-4z M94,38l4,0 0,4 -4,0 0,-4z M102,38l4,0 0,4 -4,0 0,-4z M106,38l4,0 0,4 -4,0 0,-4z M122,38l4,0 0,4 -4,0 0,-4z M126,38l4,0 0,4 -4,0 0,-4z M130,38l4,0 0,4 -4,0 0,-4z M14,42l4,0 0,4 -4,0 0,-4z M22,42l4,0 0,4 -4,0 0,-4z M26,42l4,0 0,4 -4,0 0,-4z M38,42l4,0 0,4 -4,0 0,-4z M42,42l4,0 0,4 -4,0 0,-4z M46,42l4,0 0,4 -4,0 0,-4z M50,42l4,0 0,4 -4,0 0,-4z M54,42l4,0 0,4 -4,0 0,-4z M66,42l4,0 0,4 -4,0 0,-4z M70,42l4,0 0,4 -4,0 0,-4z M86,42l4,0 0,4 -4,0 0,-4z M90,42l4,0 0,4 -4,0 0,-4z M94,42l4,0 0,4 -4,0 0,-4z M98,42l4,0 0,4 -4,0 0,-4z M102,42l4,0 0,4 -4,0 0,-4z M106,42l4,0 0,4 -4,0 0,-4z M110,42l4,0 0,4 -4,0 0,-4z M122,42l4,0 0,4 -4,0 0,-4z M126,42l4,0 0,4 -4,0 0,-4z M130,42l4,0 0,4 -4,0 0,-4z M14,46l4,0 0,4 -4,0 0,-4z M18,46l4,0 0,4 -4,0 0,-4z M30,46l4,0 0,4 -4,0 0,-4z M34,46l4,0 0,4 -4,0 0,-4z M38,46l4,0 0,4 -4,0 0,-4z M42,46l4,0 0,4 -4,0 0,-4z M62,46l4,0 0,4 -4,0 0,-4z M78,46l4,0 0,4 -4,0 0,-4z M98,46l4,0 0,4 -4,0 0,-4z M102,46l4,0 0,4 -4,0 0,-4z M110,46l4,0 0,4 -4,0 0,-4z M114,46l4,0 0,4 -4,0 0,-4z M126,46l4,0 0,4 -4,0 0,-4z M2,50l4,0 0,4 -4,0 0,-4z M6,50l4,0 0,4 -4,0 0,-4z M10,50l4,0 0,4 -4,0 0,-4z M26,50l4,0 0,4 -4,0 0,-4z M38,50l4,0 0,4 -4,0 0,-4z M42,50l4,0 0,4 -4,0 0,-4z M50,50l4,0 0,4 -4,0 0,-4z M58,50l4,0 0,4 -4,0 0,-4z M62,50l4,0 0,4 -4,0 0,-4z M66,50l4,0 0,4 -4,0 0,-4z M82,50l4,0 0,4 -4,0 0,-4z M98,50l4,0 0,4 -4,0 0,-4z M102,50l4,0 0,4 -4,0 0,-4z M114,50l4,0 0,4 -4,0 0,-4z M118,50l4,0 0,4 -4,0 0,-4z M2,54l4,0 0,4 -4,0 0,-4z M6,54l4,0 0,4 -4,0 0,-4z M10,54l4,0 0,4 -4,0 0,-4z M14,54l4,0 0,4 -4,0 0,-4z M30,54l4,0 0,4 -4,0 0,-4z M46,54l4,0 0,4 -4,0 0,-4z M50,54l4,0 0,4 -4,0 0,-4z M58,54l4,0 0,4 -4,0 0,-4z M62,54l4,0 0,4 -4,0 0,-4z M70,54l4,0 0,4 -4,0 0,-4z M74,54l4,0 0,4 -4,0 0,-4z M86,54l4,0 0,4 -4,0 0,-4z M90,54l4,0 0,4 -4,0 0,-4z M98,54l4,0 0,4 -4,0 0,-4z M102,54l4,0 0,4 -4,0 0,-4z M110,54l4,0 0,4 -4,0 0,-4z M118,54l4,0 0,4 -4,0 0,-4z M122,54l4,0 0,4 -4,0 0,-4z M126,54l4,0 0,4 -4,0 0,-4z M6,58l4,0 0,4 -4,0 0,-4z M14,58l4,0 0,4 -4,0 0,-4z M22,58l4,0 0,4 -4,0 0,-4z M26,58l4,0 0,4 -4,0 0,-4z M34,58l4,0 0,4 -4,0 0,-4z M46,58l4,0 0,4 -4,0 0,-4z M54,58l4,0 0,4 -4,0 0,-4z M70,58l4,0 0,4 -4,0 0,-4z M78,58l4,0 0,4 -4,0 0,-4z M90,58l4,0 0,4 -4,0 0,-4z M98,58l4,0 0,4 -4,0 0,-4z M110,58l4,0 0,4 -4,0 0,-4z M122,58l4,0 0,4 -4,0 0,-4z M10,62l4,0 0,4 -4,0 0,-4z M14,62l4,0 0,4 -4,0 0,-4z M30,62l4,0 0,4 -4,0 0,-4z M34,62l4,0 0,4 -4,0 0,-4z M42,62l4,0 0,4 -4,0 0,-4z M46,62l4,0 0,4 -4,0 0,-4z M58,62l4,0 0,4 -4,0 0,-4z M66,62l4,0 0,4 -4,0 0,-4z M74,62l4,0 0,4 -4,0 0,-4z M78,62l4,0 0,4 -4,0 0,-4z M82,62l4,0 0,4 -4,0 0,-4z M86,62l4,0 0,4 -4,0 0,-4z M94,62l4,0 0,4 -4,0 0,-4z M102,62l4,0 0,4 -4,0 0,-4z M114,62l4,0 0,4 -4,0 0,-4z M122,62l4,0 0,4 -4,0 0,-4z M2,66l4,0 0,4 -4,0 0,-4z M14,66l4,0 0,4 -4,0 0,-4z M18,66l4,0 0,4 -4,0 0,-4z M26,66l4,0 0,4 -4,0 0,-4z M34,66l4,0 0,4 -4,0 0,-4z M50,66l4,0 0,4 -4,0 0,-4z M58,66l4,0 0,4 -4,0 0,-4z M66,66l4,0 0,4 -4,0 0,-4z M70,66l4,0 0,4 -4,0 0,-4z M74,66l4,0 0,4 -4,0 0,-4z M78,66l4,0 0,4 -4,0 0,-4z M82,66l4,0 0,4 -4,0 0,-4z M90,66l4,0 0,4 -4,0 0,-4z M102,66l4,0 0,4 -4,0 0,-4z M106,66l4,0 0,4 -4,0 0,-4z M114,66l4,0 0,4 -4,0 0,-4z M118,66l4,0 0,4 -4,0 0,-4z M122,66l4,0 0,4 -4,0 0,-4z M126,66l4,0 0,4 -4,0 0,-4z M130,66l4,0 0,4 -4,0 0,-4z M2,70l4,0 0,4 -4,0 0,-4z M6,70l4,0 0,4 -4,0 0,-4z M10,70l4,0 0,4 -4,0 0,-4z M14,70l4,0 0,4 -4,0 0,-4z M18,70l4,0 0,4 -4,0 0,-4z M22,70l4,0 0,4 -4,0 0,-4z M34,70l4,0 0,4 -4,0 0,-4z M38,70l4,0 0,4 -4,0 0,-4z M42,70l4,0 0,4 -4,0 0,-4z M58,70l4,0 0,4 -4,0 0,-4z M62,70l4,0 0,4 -4,0 0,-4z M66,70l4,0 0,4 -4,0 0,-4z M70,70l4,0 0,4 -4,0 0,-4z M74,70l4,0 0,4 -4,0 0,-4z M78,70l4,0 0,4 -4,0 0,-4z M82,70l4,0 0,4 -4,0 0,-4z M94,70l4,0 0,4 -4,0 0,-4z M102,70l4,0 0,4 -4,0 0,-4z M106,70l4,0 0,4 -4,0 0,-4z M110,70l4,0 0,4 -4,0 0,-4z M114,70l4,0 0,4 -4,0 0,-4z M118,70l4,0 0,4 -4,0 0,-4z M122,70l4,0 0,4 -4,0 0,-4z M130,70l4,0 0,4 -4,0 0,-4z M6,74l4,0 0,4 -4,0 0,-4z M18,74l4,0 0,4 -4,0 0,-4z M26,74l4,0 0,4 -4,0 0,-4z M34,74l4,0 0,4 -4,0 0,-4z M38,74l4,0 0,4 -4,0 0,-4z M42,74l4,0 0,4 -4,0 0,-4z M54,74l4,0 0,4 -4,0 0,-4z M58,74l4,0 0,4 -4,0 0,-4z M62,74l4,0 0,4 -4,0 0,-4z M66,74l4,0 0,4 -4,0 0,-4z M70,74l4,0 0,4 -4,0 0,-4z M82,74l4,0 0,4 -4,0 0,-4z M90,74l4,0 0,4 -4,0 0,-4z M118,74l4,0 0,4 -4,0 0,-4z M126,74l4,0 0,4 -4,0 0,-4z M14,78l4,0 0,4 -4,0 0,-4z M18,78l4,0 0,4 -4,0 0,-4z M22,78l4,0 0,4 -4,0 0,-4z M38,78l4,0 0,4 -4,0 0,-4z M42,78l4,0 0,4 -4,0 0,-4z M46,78l4,0 0,4 -4,0 0,-4z M54,78l4,0 0,4 -4,0 0,-4z M58,78l4,0 0,4 -4,0 0,-4z M70,78l4,0 0,4 -4,0 0,-4z M74,78l4,0 0,4 -4,0 0,-4z M78,78l4,0 0,4 -4,0 0,-4z M94,78l4,0 0,4 -4,0 0,-4z M98,78l4,0 0,4 -4,0 0,-4z M114,78l4,0 0,4 -4,0 0,-4z M118,78l4,0 0,4 -4,0 0,-4z M130,78l4,0 0,4 -4,0 0,-4z M26,82l4,0 0,4 -4,0 0,-4z M34,82l4,0 0,4 -4,0 0,-4z M42,82l4,0 0,4 -4,0 0,-4z M54,82l4,0 0,4 -4,0 0,-4z M58,82l4,0 0,4 -4,0 0,-4z M74,82l4,0 0,4 -4,0 0,-4z M82,82l4,0 0,4 -4,0 0,-4z M94,82l4,0 0,4 -4,0 0,-4z M110,82l4,0 0,4 -4,0 0,-4z M122,82l4,0 0,4 -4,0 0,-4z M2,86l4,0 0,4 -4,0 0,-4z M6,86l4,0 0,4 -4,0 0,-4z M10,86l4,0 0,4 -4,0 0,-4z M18,86l4,0 0,4 -4,0 0,-4z M22,86l4,0 0,4 -4,0 0,-4z M38,86l4,0 0,4 -4,0 0,-4z M42,86l4,0 0,4 -4,0 0,-4z M66,86l4,0 0,4 -4,0 0,-4z M70,86l4,0 0,4 -4,0 0,-4z M74,86l4,0 0,4 -4,0 0,-4z M82,86l4,0 0,4 -4,0 0,-4z M86,86l4,0 0,4 -4,0 0,-4z M90,86l4,0 0,4 -4,0 0,-4z M94,86l4,0 0,4 -4,0 0,-4z M106,86l4,0 0,4 -4,0 0,-4z M118,86l4,0 0,4 -4,0 0,-4z M126,86l4,0 0,4 -4,0 0,-4z M130,86l4,0 0,4 -4,0 0,-4z M10,90l4,0 0,4 -4,0 0,-4z M26,90l4,0 0,4 -4,0 0,-4z M34,90l4,0 0,4 -4,0 0,-4z M38,90l4,0 0,4 -4,0 0,-4z M58,90l4,0 0,4 -4,0 0,-4z M66,90l4,0 0,4 -4,0 0,-4z M82,90l4,0 0,4 -4,0 0,-4z M90,90l4,0 0,4 -4,0 0,-4z M94,90l4,0 0,4 -4,0 0,-4z M98,90l4,0 0,4 -4,0 0,-4z M102,90l4,0 0,4 -4,0 0,-4z M106,90l4,0 0,4 -4,0 0,-4z M114,90l4,0 0,4 -4,0 0,-4z M122,90l4,0 0,4 -4,0 0,-4z M126,90l4,0 0,4 -4,0 0,-4z M130,90l4,0 0,4 -4,0 0,-4z M6,94l4,0 0,4 -4,0 0,-4z M34,94l4,0 0,4 -4,0 0,-4z M38,94l4,0 0,4 -4,0 0,-4z M46,94l4,0 0,4 -4,0 0,-4z M50,94l4,0 0,4 -4,0 0,-4z M54,94l4,0 0,4 -4,0 0,-4z M58,94l4,0 0,4 -4,0 0,-4z M62,94l4,0 0,4 -4,0 0,-4z M94,94l4,0 0,4 -4,0 0,-4z M98,94l4,0 0,4 -4,0 0,-4z M110,94l4,0 0,4 -4,0 0,-4z M118,94l4,0 0,4 -4,0 0,-4z M126,94l4,0 0,4 -4,0 0,-4z M2,98l4,0 0,4 -4,0 0,-4z M10,98l4,0 0,4 -4,0 0,-4z M14,98l4,0 0,4 -4,0 0,-4z M22,98l4,0 0,4 -4,0 0,-4z M26,98l4,0 0,4 -4,0 0,-4z M30,98l4,0 0,4 -4,0 0,-4z M34,98l4,0 0,4 -4,0 0,-4z M38,98l4,0 0,4 -4,0 0,-4z M46,98l4,0 0,4 -4,0 0,-4z M70,98l4,0 0,4 -4,0 0,-4z M78,98l4,0 0,4 -4,0 0,-4z M86,98l4,0 0,4 -4,0 0,-4z M90,98l4,0 0,4 -4,0 0,-4z M94,98l4,0 0,4 -4,0 0,-4z M98,98l4,0 0,4 -4,0 0,-4z M102,98l4,0 0,4 -4,0 0,-4z M106,98l4,0 0,4 -4,0 0,-4z M110,98l4,0 0,4 -4,0 0,-4z M114,98l4,0 0,4 -4,0 0,-4z M118,98l4,0 0,4 -4,0 0,-4z M130,98l4,0 0,4 -4,0 0,-4z M34,102l4,0 0,4 -4,0 0,-4z M38,102l4,0 0,4 -4,0 0,-4z M42,102l4,0 0,4 -4,0 0,-4z M46,102l4,0 0,4 -4,0 0,-4z M54,102l4,0 0,4 -4,0 0,-4z M62,102l4,0 0,4 -4,0 0,-4z M66,102l4,0 0,4 -4,0 0,-4z M78,102l4,0 0,4 -4,0 0,-4z M94,102l4,0 0,4 -4,0 0,-4z M98,102l4,0 0,4 -4,0 0,-4z M114,102l4,0 0,4 -4,0 0,-4z M2,106l4,0 0,4 -4,0 0,-4z M6,106l4,0 0,4 -4,0 0,-4z M10,106l4,0 0,4 -4,0 0,-4z M14,106l4,0 0,4 -4,0 0,-4z M18,106l4,0 0,4 -4,0 0,-4z M22,106l4,0 0,4 -4,0 0,-4z M26,106l4,0 0,4 -4,0 0,-4z M50,106l4,0 0,4 -4,0 0,-4z M58,106l4,0 0,4 -4,0 0,-4z M70,106l4,0 0,4 -4,0 0,-4z M78,106l4,0 0,4 -4,0 0,-4z M82,106l4,0 0,4 -4,0 0,-4z M86,106l4,0 0,4 -4,0 0,-4z M94,106l4,0 0,4 -4,0 0,-4z M98,106l4,0 0,4 -4,0 0,-4z M106,106l4,0 0,4 -4,0 0,-4z M114,106l4,0 0,4 -4,0 0,-4z M118,106l4,0 0,4 -4,0 0,-4z M122,106l4,0 0,4 -4,0 0,-4z M2,110l4,0 0,4 -4,0 0,-4z M26,110l4,0 0,4 -4,0 0,-4z M38,110l4,0 0,4 -4,0 0,-4z M42,110l4,0 0,4 -4,0 0,-4z M50,110l4,0 0,4 -4,0 0,-4z M54,110l4,0 0,4 -4,0 0,-4z M62,110l4,0 0,4 -4,0 0,-4z M66,110l4,0 0,4 -4,0 0,-4z M74,110l4,0 0,4 -4,0 0,-4z M82,110l4,0 0,4 -4,0 0,-4z M86,110l4,0 0,4 -4,0 0,-4z M90,110l4,0 0,4 -4,0 0,-4z M94,110l4,0 0,4 -4,0 0,-4z M98,110l4,0 0,4 -4,0 0,-4z M114,110l4,0 0,4 -4,0 0,-4z M118,110l4,0 0,4 -4,0 0,-4z M122,110l4,0 0,4 -4,0 0,-4z M126,110l4,0 0,4 -4,0 0,-4z M2,114l4,0 0,4 -4,0 0,-4z M10,114l4,0 0,4 -4,0 0,-4z M14,114l4,0 0,4 -4,0 0,-4z M18,114l4,0 0,4 -4,0 0,-4z M26,114l4,0 0,4 -4,0 0,-4z M38,114l4,0 0,4 -4,0 0,-4z M46,114l4,0 0,4 -4,0 0,-4z M74,114l4,0 0,4 -4,0 0,-4z M78,114l4,0 0,4 -4,0 0,-4z M82,114l4,0 0,4 -4,0 0,-4z M86,114l4,0 0,4 -4,0 0,-4z M94,114l4,0 0,4 -4,0 0,-4z M98,114l4,0 0,4 -4,0 0,-4z M102,114l4,0 0,4 -4,0 0,-4z M106,114l4,0 0,4 -4,0 0,-4z M110,114l4,0 0,4 -4,0 0,-4z M114,114l4,0 0,4 -4,0 0,-4z M122,114l4,0 0,4 -4,0 0,-4z M126,114l4,0 0,4 -4,0 0,-4z M2,118l4,0 0,4 -4,0 0,-4z M10,118l4,0 0,4 -4,0 0,-4z M14,118l4,0 0,4 -4,0 0,-4z M18,118l4,0 0,4 -4,0 0,-4z M26,118l4,0 0,4 -4,0 0,-4z M34,118l4,0 0,4 -4,0 0,-4z M38,118l4,0 0,4 -4,0 0,-4z M50,118l4,0 0,4 -4,0 0,-4z M54,118l4,0 0,4 -4,0 0,-4z M94,118l4,0 0,4 -4,0 0,-4z M98,118l4,0 0,4 -4,0 0,-4z M102,118l4,0 0,4 -4,0 0,-4z M118,118l4,0 0,4 -4,0 0,-4z M130,118l4,0 0,4 -4,0 0,-4z M2,122l4,0 0,4 -4,0 0,-4z M10,122l4,0 0,4 -4,0 0,-4z M14,122l4,0 0,4 -4,0 0,-4z M18,122l4,0 0,4 -4,0 0,-4z M26,122l4,0 0,4 -4,0 0,-4z M34,122l4,0 0,4 -4,0 0,-4z M42,122l4,0 0,4 -4,0 0,-4z M46,122l4,0 0,4 -4,0 0,-4z M50,122l4,0 0,4 -4,0 0,-4z M62,122l4,0 0,4 -4,0 0,-4z M74,122l4,0 0,4 -4,0 0,-4z M98,122l4,0 0,4 -4,0 0,-4z M106,122l4,0 0,4 -4,0 0,-4z M110,122l4,0 0,4 -4,0 0,-4z M118,122l4,0 0,4 -4,0 0,-4z M2,126l4,0 0,4 -4,0 0,-4z M26,126l4,0 0,4 -4,0 0,-4z M34,126l4,0 0,4 -4,0 0,-4z M38,126l4,0 0,4 -4,0 0,-4z M42,126l4,0 0,4 -4,0 0,-4z M50,126l4,0 0,4 -4,0 0,-4z M62,126l4,0 0,4 -4,0 0,-4z M70,126l4,0 0,4 -4,0 0,-4z M74,126l4,0 0,4 -4,0 0,-4z M78,126l4,0 0,4 -4,0 0,-4z M82,126l4,0 0,4 -4,0 0,-4z M94,126l4,0 0,4 -4,0 0,-4z M98,126l4,0 0,4 -4,0 0,-4z M102,126l4,0 0,4 -4,0 0,-4z M110,126l4,0 0,4 -4,0 0,-4z M114,126l4,0 0,4 -4,0 0,-4z M130,126l4,0 0,4 -4,0 0,-4z M2,130l4,0 0,4 -4,0 0,-4z M6,130l4,0 0,4 -4,0 0,-4z M10,130l4,0 0,4 -4,0 0,-4z M14,130l4,0 0,4 -4,0 0,-4z M18,130l4,0 0,4 -4,0 0,-4z M22,130l4,0 0,4 -4,0 0,-4z M26,130l4,0 0,4 -4,0 0,-4z M34,130l4,0 0,4 -4,0 0,-4z M38,130l4,0 0,4 -4,0 0,-4z M46,130l4,0 0,4 -4,0 0,-4z M50,130l4,0 0,4 -4,0 0,-4z M54,130l4,0 0,4 -4,0 0,-4z M74,130l4,0 0,4 -4,0 0,-4z M82,130l4,0 0,4 -4,0 0,-4z M94,130l4,0 0,4 -4,0 0,-4z M102,130l4,0 0,4 -4,0 0,-4z M106,130l4,0 0,4 -4,0 0,-4z M110,130l4,0 0,4 -4,0 0,-4z M114,130l4,0 0,4 -4,0 0,-4z M118,130l4,0 0,4 -4,0 0,-4z M122,130l4,0 0,4 -4,0 0,-4z " stroke="transparent" fill="black"/></svg>