<svg version="1.1" xmlns="http://www.w3.org/2000/svg" width="120px" height="120px" viewBox="0 0 120 120"  preserveAspectRatio="xMinYMin meet"><rect width="100%" height="100%" fill="white" cx="0" cy="0"/><path d="M2,2l4,0 0,4 -4,0 0,-4z M6,2l4,0 0,4 -4,0 0,-4z M10,2l4,0 0,4 -4,0 0,-4z M14,2l4,0 0,4 -4,0 0,-4z M18,2l4,0 0,4 -4,0 0,-4z M22,2l4,0 0,4 -4,0 0,-4z M26,2l4,0 0,4 -4,0 0,-4z M34,2l4,0 0,4 -4,0 0,-4z M38,2l4,0 0,4 -4,0 0,-4z M42,2l4,0 0,4 -4,0 0,-4z M46,2l4,0 0,4 -4,0 0,-4z M54,2l4,0 0,4 -4,0 0,-4z M58,2l4,0 0,4 -4,0 0,-4z M70,2l4,0 0,4 -4,0 0,-4z M74,2l4,0 0,4 -4,0 0,-4z M90,2l4,0 0,4 -4,0 0,-4z M94,2l4,0 0,4 -4,0 0,-4z M98,2l4,0 0,4 -4,0 0,-4z M102,2l4,0 0,4 -4,0 0,-4z M106,2l4,0 0,4 -4,0 0,-4z M110,2l4,0 0,4 -4,0 0,-4z M114,2l4,0 0,4 -4,0 0,-4z M2,6l4,0 0,4 -4,0 0,-4z M26,6l4,0 0,4 -4,0 0,-4z M46,6l4,0 0,4 -4,0 0,-4z M50,6l4,0 0,4 -4,0 0,-4z M66,6l4,0 0,4 -4,0 0,-4z M70,6l4,0 0,4 -4,0 0,-4z M74,6l4,0 0,4 -4,0 0,-4z M78,6l4,0 0,4 -4,0 0,-4z M90,6l4,0 0,4 -4,0 0,-4z M114,6l4,0 0,4 -4,0 0,-4z M2,10l4,0 0,4 -4,0 0,-4z M10,10l4,0 0,4 -4,0 0,-4z M14,10l4,0 0,4 -4,0 0,-4z M18,10l4,0 0,4 -4,0 0,-4z M26,10l4,0 0,4 -4,0 0,-4z M38,10l4,0 0,4 -4,0 0,-4z M46,10l4,0 0,4 -4,0 0,-4z M54,10l4,0 0,4 -4,0 0,-4z M58,10l4,0 0,4 -4,0 0,-4z M62,10l4,0 0,4 -4,0 0,-4z M66,10l4,0 0,4 -4,0 0,-4z M74,10l4,0 0,4 -4,0 0,-4z M78,10l4,0 0,4 -4,0 0,-4z M82,10l4,0 0,4 -4,0 0,-4z M90,10l4,0 0,4 -4,0 0,-4z M98,10l4,0 0,4 -4,0 0,-4z M102,10l4,0 0,4 -4,0 0,-4z M106,10l4,0 0,4 -4,0 0,-4z M114,10l4,0 0,4 -4,0 0,-4z M2,14l4,0 0,4 -4,0 0,-4z M10,14l4,0 0,4 -4,0 0,-4z M14,14l4,0 0,4 -4,0 0,-4z M18,14l4,0 0,4 -4,0 0,-4z M26,14l4,0 0,4 -4,0 0,-4z M42,14l4,0 0,4 -4,0 0,-4z M46,14l4,0 0,4 -4,0 0,-4z M58,14l4,0 0,4 -4,0 0,-4z M62,14l4,0 0,4 -4,0 0,-4z M70,14l4,0 0,4 -4,0 0,-4z M78,14l4,0 0,4 -4,0 0,-4z M82,14l4,0 0,4 -4,0 0,-4z M90,14l4,0 0,4 -4,0 0,-4z M98,14l4,0 0,4 -4,0 0,-4z M102,14l4,0 0,4 -4,0 0,-4z M106,14l4,0 0,4 -4,0 0,-4z M114,14l4,0 0,4 -4,0 0,-4z M2,18l4,0 0,4 -4,0 0,-4z M10,18l4,0 0,4 -4,0 0,-4z M14,18l4,0 0,4 -4,0 0,-4z M18,18l4,0 0,4 -4,0 0,-4z M26,18l4,0 0,4 -4,0 0,-4z M42,18l4,0 0,4 -4,0 0,-4z M46,18l4,0 0,4 -4,0 0,-4z M50,18l4,0 0,4 -4,0 0,-4z M54,18l4,0 0,4 -4,0 0,-4z M58,18l4,0 0,4 -4,0 0,-4z M70,18l4,0 0,4 -4,0 0,-4z M74,18l4,0 0,4 -4,0 0,-4z M78,18l4,0 0,4 -4,0 0,-4z M90,18l4,0 0,4 -4,0 0,-4z M98,18l4,0 0,4 -4,0 0,-4z M102,18l4,0 0,4 -4,0 0,-4z M106,18l4,0 0,4 -4,0 0,-4z M114,18l4,0 0,4 -4,0 0,-4z M2,22l4,0 0,4 -4,0 0,-4z M26,22l4,0 0,4 -4,0 0,-4z M38,22l4,0 0,4 -4,0 0,-4z M46,22l4,0 0,4 -4,0 0,-4z M54,22l4,0 0,4 -4,0 0,-4z M58,22l4,0 0,4 -4,0 0,-4z M70,22l4,0 0,4 -4,0 0,-4z M82,22l4,0 0,4 -4,0 0,-4z M90,22l4,0 0,4 -4,0 0,-4z M114,22l4,0 0,4 -4,0 0,-4z M2,26l4,0 0,4 -4,0 0,-4z M6,26l4,0 0,4 -4,0 0,-4z M10,26l4,0 0,4 -4,0 0,-4z M14,26l4,0 0,4 -4,0 0,-4z M18,26l4,0 0,4 -4,0 0,-4z M22,26l4,0 0,4 -4,0 0,-4z M26,26l4,0 0,4 -4,0 0,-4z M34,26l4,0 0,4 -4,0 0,-4z M42,26l4,0 0,4 -4,0 0,-4z M50,26l4,0 0,4 -4,0 0,-4z M58,26l4,0 0,4 -4,0 0,-4z M66,26l4,0 0,4 -4,0 0,-4z M74,26l4,0 0,4 -4,0 0,-4z M82,26l4,0 0,4 -4,0 0,-4z M90,26l4,0 0,4 -4,0 0,-4z M94,26l4,0 0,4 -4,0 0,-4z M98,26l4,0 0,4 -4,0 0,-4z M102,26l4,0 0,4 -4,0 0,-4z M106,26l4,0 0,4 -4,0 0,-4z M110,26l4,0 0,4 -4,0 0,-4z M114,26l4,0 0,4 -4,0 0,-4z M34,30l4,0 0,4 -4,0 0,-4z M38,30l4,0 0,4 -4,0 0,-4z M50,30l4,0 0,4 -4,0 0,-4z M58,30l4,0 0,4 -4,0 0,-4z M66,30l4,0 0,4 -4,0 0,-4z M78,30l4,0 0,4 -4,0 0,-4z M2,34l4,0 0,4 -4,0 0,-4z M6,34l4,0 0,4 -4,0 0,-4z M14,34l4,0 0,4 -4,0 0,-4z M18,34l4,0 0,4 -4,0 0,-4z M26,34l4,0 0,4 -4,0 0,-4z M38,34l4,0 0,4 -4,0 0,-4z M50,34l4,0 0,4 -4,0 0,-4z M54,34l4,0 0,4 -4,0 0,-4z M58,34l4,0 0,4 -4,0 0,-4z M66,34l4,0 0,4 -4,0 0,-4z M70,34l4,0 0,4 -4,0 0,-4z M78,34l4,0 0,4 -4,0 0,-4z M90,34l4,0 0,4 -4,0 0,-4z M114,34l4,0 0,4 -4,0 0,-4z M14,38l4,0 0,4 -4,0 0,-4z M18,38l4,0 0,4 -4,0 0,-4z M30,38l4,0 0,4 -4,0 0,-4z M42,38l4,0 0,4 -4,0 0,-4z M58,38l4,0 0,4 -4,0 0,-4z M74,38l4,0 0,4 -4,0 0,-4z M78,38l4,0 0,4 -4,0 0,-4z M86,38l4,0 0,4 -4,0 0,-4z M94,38l4,0 0,4 -4,0 0,-4z M98,38l4,0 0,4 -4,0 0,-4z M106,38l4,0 0,4 -4,0 0,-4z M110,38l4,0 0,4 -4,0 0,-4z M2,42l4,0 0,4 -4,0 0,-4z M6,42l4,0 0,4 -4,0 0,-4z M22,42l4,0 0,4 -4,0 0,-4z M26,42l4,0 0,4 -4,0 0,-4z M30,42l4,0 0,4 -4,0 0,-4z M34,42l4,0 0,4 -4,0 0,-4z M38,42l4,0 0,4 -4,0 0,-4z M50,42l4,0 0,4 -4,0 0,-4z M58,42l4,0 0,4 -4,0 0,-4z M62,42l4,0 0,4 -4,0 0,-4z M70,42l4,0 0,4 -4,0 0,-4z M94,42l4,0 0,4 -4,0 0,-4z M98,42l4,0 0,4 -4,0 0,-4z M106,42l4,0 0,4 -4,0 0,-4z M2,46l4,0 0,4 -4,0 0,-4z M6,46l4,0 0,4 -4,0 0,-4z M14,46l4,0 0,4 -4,0 0,-4z M22,46l4,0 0,4 -4,0 0,-4z M30,46l4,0 0,4 -4,0 0,-4z M34,46l4,0 0,4 -4,0 0,-4z M58,46l4,0 0,4 -4,0 0,-4z M70,46l4,0 0,4 -4,0 0,-4z M74,46l4,0 0,4 -4,0 0,-4z M78,46l4,0 0,4 -4,0 0,-4z M82,46l4,0 0,4 -4,0 0,-4z M86,46l4,0 0,4 -4,0 0,-4z M90,46l4,0 0,4 -4,0 0,-4z M98,46l4,0 0,4 -4,0 0,-4z M102,46l4,0 0,4 -4,0 0,-4z M114,46l4,0 0,4 -4,0 0,-4z M10,50l4,0 0,4 -4,0 0,-4z M22,50l4,0 0,4 -4,0 0,-4z M26,50l4,0 0,4 -4,0 0,-4z M38,50l4,0 0,4 -4,0 0,-4z M42,50l4,0 0,4 -4,0 0,-4z M54,50l4,0 0,4 -4,0 0,-4z M58,50l4,0 0,4 -4,0 0,-4z M66,50l4,0 0,4 -4,0 0,-4z M74,50l4,0 0,4 -4,0 0,-4z M82,50l4,0 0,4 -4,0 0,-4z M90,50l4,0 0,4 -4,0 0,-4z M114,50l4,0 0,4 -4,0 0,-4z M6,54l4,0 0,4 -4,0 0,-4z M34,54l4,0 0,4 -4,0 0,-4z M38,54l4,0 0,4 -4,0 0,-4z M42,54l4,0 0,4 -4,0 0,-4z M50,54l4,0 0,4 -4,0 0,-4z M66,54l4,0 0,4 -4,0 0,-4z M70,54l4,0 0,4 -4,0 0,-4z M74,54l4,0 0,4 -4,0 0,-4z M82,54l4,0 0,4 -4,0 0,-4z M90,54l4,0 0,4 -4,0 0,-4z M94,54l4,0 0,4 -4,0 0,-4z M98,54l4,0 0,4 -4,0 0,-4z M102,54l4,0 0,4 -4,0 0,-4z M106,54l4,0 0,4 -4,0 0,-4z M110,54l4,0 0,4 -4,0 0,-4z M114,54l4,0 0,4 -4,0 0,-4z M6,58l4,0 0,4 -4,0 0,-4z M18,58l4,0 0,4 -4,0 0,-4z M26,58l4,0 0,4 -4,0 0,-4z M30,58l4,0 0,4 -4,0 0,-4z M38,58l4,0 0,4 -4,0 0,-4z M58,58l4,0 0,4 -4,0 0,-4z M62,58l4,0 0,4 -4,0 0,-4z M66,58l4,0 0,4 -4,0 0,-4z M70,58l4,0 0,4 -4,0 0,-4z M78,58l4,0 0,4 -4,0 0,-4z M82,58l4,0 0,4 -4,0 0,-4z M86,58l4,0 0,4 -4,0 0,-4z M90,58l4,0 0,4 -4,0 0,-4z M94,58l4,0 0,4 -4,0 0,-4z M98,58l4,0 0,4 -4,0 0,-4z M106,58l4,0 0,4 -4,0 0,-4z M114,58l4,0 0,4 -4,0 0,-4z M6,62l4,0 0,4 -4,0 0,-4z M14,62l4,0 0,4 -4,0 0,-4z M18,62l4,0 0,4 -4,0 0,-4z M34,62l4,0 0,4 -4,0 0,-4z M38,62l4,0 0,4 -4,0 0,-4z M50,62l4,0 0,4 -4,0 0,-4z M54,62l4,0 0,4 -4,0 0,-4z M58,62l4,0 0,4 -4,0 0,-4z M66,62l4,0 0,4 -4,0 0,-4z M94,62l4,0 0,4 -4,0 0,-4z M98,62l4,0 0,4 -4,0 0,-4z M106,62l4,0 0,4 -4,0 0,-4z M114,62l4,0 0,4 -4,0 0,-4z M2,66l4,0 0,4 -4,0 0,-4z M6,66l4,0 0,4 -4,0 0,-4z M26,66l4,0 0,4 -4,0 0,-4z M30,66l4,0 0,4 -4,0 0,-4z M38,66l4,0 0,4 -4,0 0,-4z M42,66l4,0 0,4 -4,0 0,-4z M46,66l4,0 0,4 -4,0 0,-4z M50,66l4,0 0,4 -4,0 0,-4z M66,66l4,0 0,4 -4,0 0,-4z M78,66l4,0 0,4 -4,0 0,-4z M82,66l4,0 0,4 -4,0 0,-4z M102,66l4,0 0,4 -4,0 0,-4z M2,70l4,0 0,4 -4,0 0,-4z M6,70l4,0 0,4 -4,0 0,-4z M10,70l4,0 0,4 -4,0 0,-4z M14,70l4,0 0,4 -4,0 0,-4z M22,70l4,0 0,4 -4,0 0,-4z M42,70l4,0 0,4 -4,0 0,-4z M46,70l4,0 0,4 -4,0 0,-4z M70,70l4,0 0,4 -4,0 0,-4z M74,70l4,0 0,4 -4,0 0,-4z M78,70l4,0 0,4 -4,0 0,-4z M82,70l4,0 0,4 -4,0 0,-4z M98,70l4,0 0,4 -4,0 0,-4z M106,70l4,0 0,4 -4,0 0,-4z M110,70l4,0 0,4 -4,0 0,-4z M2,74l4,0 0,4 -4,0 0,-4z M6,74l4,0 0,4 -4,0 0,-4z M10,74l4,0 0,4 -4,0 0,-4z M14,74l4,0 0,4 -4,0 0,-4z M18,74l4,0 0,4 -4,0 0,-4z M26,74l4,0 0,4 -4,0 0,-4z M30,74l4,0 0,4 -4,0 0,-4z M42,74l4,0 0,4 -4,0 0,-4z M50,74l4,0 0,4 -4,0 0,-4z M54,74l4,0 0,4 -4,0 0,-4z M58,74l4,0 0,4 -4,0 0,-4z M62,74l4,0 0,4 -4,0 0,-4z M66,74l4,0 0,4 -4,0 0,-4z M70,74l4,0 0,4 -4,0 0,-4z M78,74l4,0 0,4 -4,0 0,-4z M90,74l4,0 0,4 -4,0 0,-4z M102,74l4,0 0,4 -4,0 0,-4z M114,74l4,0 0,4 -4,0 0,-4z M2,78l4,0 0,4 -4,0 0,-4z M6,78l4,0 0,4 -4,0 0,-4z M10,78l4,0 0,4 -4,0 0,-4z M14,78l4,0 0,4 -4,0 0,-4z M18,78l4,0 0,4 -4,0 0,-4z M22,78l4,0 0,4 -4,0 0,-4z M30,78l4,0 0,4 -4,0 0,-4z M46,78l4,0 0,4 -4,0 0,-4z M54,78l4,0 0,4 -4,0 0,-4z M86,78l4,0 0,4 -4,0 0,-4z M94,78l4,0 0,4 -4,0 0,-4z M102,78l4,0 0,4 -4,0 0,-4z M106,78l4,0 0,4 -4,0 0,-4z M2,82l4,0 0,4 -4,0 0,-4z M6,82l4,0 0,4 -4,0 0,-4z M10,82l4,0 0,4 -4,0 0,-4z M14,82l4,0 0,4 -4,0 0,-4z M18,82l4,0 0,4 -4,0 0,-4z M22,82l4,0 0,4 -4,0 0,-4z M26,82l4,0 0,4 -4,0 0,-4z M30,82l4,0 0,4 -4,0 0,-4z M34,82l4,0 0,4 -4,0 0,-4z M46,82l4,0 0,4 -4,0 0,-4z M54,82l4,0 0,4 -4,0 0,-4z M62,82l4,0 0,4 -4,0 0,-4z M70,82l4,0 0,4 -4,0 0,-4z M82,82l4,0 0,4 -4,0 0,-4z M86,82l4,0 0,4 -4,0 0,-4z M90,82l4,0 0,4 -4,0 0,-4z M94,82l4,0 0,4 -4,0 0,-4z M98,82l4,0 0,4 -4,0 0,-4z M102,82l4,0 0,4 -4,0 0,-4z M106,82l4,0 0,4 -4,0 0,-4z M110,82l4,0 0,4 -4,0 0,-4z M34,86l4,0 0,4 -4,0 0,-4z M38,86l4,0 0,4 -4,0 0,-4z M42,86l4,0 0,4 -4,0 0,-4z M50,86l4,0 0,4 -4,0 0,-4z M54,86l4,0 0,4 -4,0 0,-4z M70,86l4,0 0,4 -4,0 0,-4z M74,86l4,0 0,4 -4,0 0,-4z M82,86l4,0 0,4 -4,0 0,-4z M98,86l4,0 0,4 -4,0 0,-4z M102,86l4,0 0,4 -4,0 0,-4z M2,90l4,0 0,4 -4,0 0,-4z M6,90l4,0 0,4 -4,0 0,-4z M10,90l4,0 0,4 -4,0 0,-4z M14,90l4,0 0,4 -4,0 0,-4z M18,90l4,0 0,4 -4,0 0,-4z M22,90l4,0 0,4 -4,0 0,-4z M26,90l4,0 0,4 -4,0 0,-4z M42,90l4,0 0,4 -4,0 0,-4z M46,90l4,0 0,4 -4,0 0,-4z M54,90l4,0 0,4 -4,0 0,-4z M62,90l4,0 0,4 -4,0 0,-4z M66,90l4,0 0,4 -4,0 0,-4z M78,90l4,0 0,4 -4,0 0,-4z M82,90l4,0 0,4 -4,0 0,-4z M90,90l4,0 0,4 -4,0 0,-4z M98,90l4,0 0,4 -4,0 0,-4z M102,90l4,0 0,4 -4,0 0,-4z M2,94l4,0 0,4 -4,0 0,-4z M26,94l4,0 0,4 -4,0 0,-4z M38,94l4,0 0,4 -4,0 0,-4z M46,94l4,0 0,4 -4,0 0,-4z M50,94l4,0 0,4 -4,0 0,-4z M54,94l4,0 0,4 -4,0 0,-4z M70,94l4,0 0,4 -4,0 0,-4z M74,94l4,0 0,4 -4,0 0,-4z M78,94l4,0 0,4 -4,0 0,-4z M82,94l4,0 0,4 -4,0 0,-4z M98,94l4,0 0,4 -4,0 0,-4z M110,94l4,0 0,4 -4,0 0,-4z M114,94l4,0 0,4 -4,0 0,-4z M2,98l4,0 0,4 -4,0 0,-4z M10,98l4,0 0,4 -4,0 0,-4z M14,98l4,0 0,4 -4,0 0,-4z M18,98l4,0 0,4 -4,0 0,-4z M26,98l4,0 0,4 -4,0 0,-4z M34,98l4,0 0,4 -4,0 0,-4z M42,98l4,0 0,4 -4,0 0,-4z M46,98l4,0 0,4 -4,0 0,-4z M50,98l4,0 0,4 -4,0 0,-4z M54,98l4,0 0,4 -4,0 0,-4z M62,98l4,0 0,4 -4,0 0,-4z M78,98l4,0 0,4 -4,0 0,-4z M82,98l4,0 0,4 -4,0 0,-4z M86,98l4,0 0,4 -4,0 0,-4z M90,98l4,0 0,4 -4,0 0,-4z M94,98l4,0 0,4 -4,0 0,-4z M98,98l4,0 0,4 -4,0 0,-4z M102,98l4,0 0,4 -4,0 0,-4z M114,98l4,0 0,4 -4,0 0,-4z M2,102l4,0 0,4 -4,0 0,-4z M10,102l4,0 0,4 -4,0 0,-4z M14,102l4,0 0,4 -4,0 0,-4z M18,102l4,0 0,4 -4,0 0,-4z M26,102l4,0 0,4 -4,0 0,-4z M34,102l4,0 0,4 -4,0 0,-4z M54,102l4,0 0,4 -4,0 0,-4z M58,102l4,0 0,4 -4,0 0,-4z M62,102l4,0 0,4 -4,0 0,-4z M66,102l4,0 0,4 -4,0 0,-4z M74,102l4,0 0,4 -4,0 0,-4z M114,102l4,0 0,4 -4,0 0,-4z M2,106l4,0 0,4 -4,0 0,-4z M10,106l4,0 0,4 -4,0 0,-4z M14,106l4,0 0,4 -4,0 0,-4z M18,106l4,0 0,4 -4,0 0,-4z M26,106l4,0 0,4 -4,0 0,-4z M46,106l4,0 0,4 -4,0 0,-4z M50,106l4,0 0,4 -4,0 0,-4z M54,106l4,0 0,4 -4,0 0,-4z M62,106l4,0 0,4 -4,0 0,-4z M78,106l4,0 0,4 -4,0 0,-4z M86,106l4,0 0,4 -4,0 0,-4z M94,106l4,0 0,4 -4,0 0,-4z M98,106l4,0 0,4 -4,0 0,-4z M106,106l4,0 0,4 -4,0 0,-4z M110,106l4,0 0,4 -4,0 0,-4z M114,106l4,0 0,4 -4,0 0,-4z M2,110l4,0 0,4 -4,0 0,-4z M26,110l4,0 0,4 -4,0 0,-4z M34,110l4,0 0,4 -4,0 0,-4z M38,110l4,0 0,4 -4,0 0,-4z M46,110l4,0 0,4 -4,0 0,-4z M74,110l4,0 0,4 -4,0 0,-4z M86,110l4,0 0,4 -4,0 0,-4z M94,110l4,0 0,4 -4,0 0,-4z M98,110l4,0 0,4 -4,0 0,-4z M102,110l4,0 0,4 -4,0 0,-4z M106,110l4,0 0,4 -4,0 0,-4z M114,110l4,0 0,4 -4,0 0,-4z M2,114l4,0 0,4 -4,0 0,-4z M6,114l4,0 0,4 -4,0 0,-4z M10,114l4,0 0,4 -4,0 0,-4z M14,114l4,0 0,4 -4,0 0,-4z M18,114l4,0 0,4 -4,0 0,-4z M22,114l4,0 0,4 -4,0 0,-4z M26,114l4,0 0,4 -4,0 0,-4z M34,114l4,0 0,4 -4,0 0,-4z M42,114l4,0 0,4 -4,0 0,-4z M58,114l4,0 0,4 -4,0 0,-4z M62,114l4,0 0,4 -4,0 0,-4z M66,114l4,0 0,4 -4,0 0,-4z M78,114l4,0 0,4 -4,0 0,-4z M82,114l4,0 0,4 -4,0 0,-4z M86,114l4,0 0,4 -4,0 0,-4z M90,114l4,0 0,4 -4,0 0,-4z M94,114l4,0 0,4 -4,0 0,-4z M102,114l4,0 0,4 -4,0 0,-4z " stroke="transparent" fill="black"/></svg>